Coordinates
version=1
nRows=13
nColumns=34
inDegrees=yes

Units are S.I. units (second, meters, Newtons, ...)
If the header above contains a line with 'inDegrees', this indicates whether rotational values are in degrees (yes) or radians (no).

endheader
time	pelvis_tilt	pelvis_list	pelvis_rotation	pelvis_tx	pelvis_ty	pelvis_tz	hip_flexion_r	hip_adduction_r	hip_rotation_r	knee_angle_r	ankle_angle_r	subtalar_angle_r	mtp_angle_r	hip_flexion_l	hip_adduction_l	hip_rotation_l	knee_angle_l	ankle_angle_l	subtalar_angle_l	mtp_angle_l	lumbar_extension	lumbar_bending	lumbar_rotation	arm_flex_r	arm_add_r	arm_rot_r	elbow_flex_r	pro_sup_r	arm_flex_l	arm_add_l	arm_rot_l	elbow_flex_l	pro_sup_l
      5.48333330	     -8.35452734	      1.68869081	     -0.00713094	     -0.02162283	      1.20942799	     -0.05788930	      3.68120097	     -0.34516642	     -5.68241265	      1.85408448	     14.72971999	      5.99619867	      0.00000000	      5.57254677	      0.74563144	     -5.81639547	      4.89497261	     13.03845400	      1.94725514	      0.00000000	      3.17541438	     -0.33511488	     -1.93600214	      1.17083319	     -8.73388764	     26.81658690	     26.38697567	     73.81004114	     -0.25724317	    -12.10974742	     39.21033228	     24.00693984	     63.18656665
      5.50000000	     -8.38490932	      1.68318533	      0.01218626	     -0.02063967	      1.20710884	     -0.05748205	      3.68927911	     -0.35955361	     -5.68733312	      1.84953170	     14.72618962	      5.99438503	      0.00000000	      5.53196538	      0.74781367	     -5.82149776	      4.91724268	     13.03412048	      1.94664199	      0.00000000	      3.17384190	     -0.32812571	     -1.93592976	      1.16925894	     -8.73816594	     26.81748386	     26.38631397	     73.80918801	     -0.25418137	    -12.11595124	     39.20984796	     24.00941084	     63.18744779
      5.51666670	     -8.81854758	      1.71557968	      0.39772925	     -0.01960776	      1.20883778	     -0.05740235	      3.96177520	     -0.40263540	     -6.33050177	      1.62113744	     14.36979168	      6.20328311	      0.00000000	      6.04975604	      0.81406166	     -5.87821691	      5.02904214	     12.95138475	      2.25187232	      0.00000000	      3.81818024	     -0.26301655	     -1.87946853	      0.52568386	     -9.16463774	     27.38437337	     27.08725500	     73.29917947	     -0.69396885	    -12.87706503	     39.57113663	     25.94815726	     63.79453702
      5.53333330	     -8.85591979	      1.72871523	      0.57403893	     -0.01873661	      1.21225578	     -0.05810007	      3.92787973	     -0.44532860	     -6.45628814	      1.51783373	     14.38258952	      6.16076238	      0.00000000	      6.01467506	      0.85608607	     -5.90004263	      4.89001105	     12.70634729	      2.38299784	      0.00000000	      3.90459216	     -0.27036153	     -1.92306730	      0.27788792	     -9.19696092	     27.45692498	     27.10668571	     73.22188210	     -0.81668912	    -12.99099472	     39.58781538	     26.04465008	     63.86442747
      5.55000000	     -8.83929229	      1.73089103	      0.59577696	     -0.01977720	      1.21179222	     -0.05734104	      3.95001808	     -0.45469308	     -6.45798717	      1.50108218	     14.37990248	      6.16194507	      0.00000000	      6.01131537	      0.86688874	     -5.90147966	      4.88496914	     12.70452033	      2.38510910	      0.00000000	      3.90500633	     -0.25496303	     -1.91838009	      0.27064466	     -9.19631825	     27.45913210	     27.10778357	     73.22030882	     -0.82624584	    -13.00058898	     39.58805101	     26.04511403	     63.86588515
      5.56666670	     -9.29621280	      1.77227398	      0.82858009	     -0.01948909	      1.21111071	     -0.05822565	      4.37370566	     -0.55903573	     -6.90611197	      1.40874649	     14.17109208	      6.39393289	      0.00000000	      6.52730827	      0.95342749	     -5.97671366	      4.86712492	     12.59133972	      2.83632626	      0.00000000	      4.47829034	     -0.20153524	     -1.98780683	     -0.27855181	     -9.48176701	     27.74406993	     27.97792315	     72.70534812	     -1.34139852	    -13.57058764	     39.74665302	     27.41735250	     64.34070383
      5.58333330	     -9.30653793	      1.77228383	      0.84304935	     -0.01878029	      1.21145500	     -0.05780009	      4.37091541	     -0.57163598	     -6.91087447	      1.41118289	     14.17200393	      6.39019003	      0.00000000	      6.52044872	      0.95157683	     -5.97764038	      4.86507574	     12.59136283	      2.83641284	      0.00000000	      4.47513222	     -0.19498899	     -1.98354405	     -0.28388933	     -9.48058761	     27.74560048	     27.97842885	     72.70382819	     -1.35011148	    -13.57202615	     39.74732717	     27.41803835	     64.34195103
      5.60000000	     -9.34860060	      1.81538855	      1.09708415	     -0.01869410	      1.20935520	     -0.05832765	      4.31974701	     -0.65229083	     -7.30596415	      1.40291312	     14.13713196	      6.18300450	      0.00000000	      6.49285380	      1.05917886	     -5.89693976	      4.70904619	     12.54090587	      3.02273926	      0.00000000	      4.63827602	     -0.19807577	     -1.99018410	     -0.64539121	     -9.53472466	     27.83986825	     28.19737293	     72.52935818	     -1.56185616	    -13.70957229	     39.75842008	     27.76448849	     64.47956634
      5.61666670	     -9.36045519	      1.82506241	      1.10763358	     -0.01855135	      1.21047331	     -0.05763441	      4.30269757	     -0.64903538	     -7.30731673	      1.41786028	     14.13404319	      6.18319488	      0.00000000	      6.50110376	      1.05578861	     -5.89973646	      4.70933644	     12.53999234	      3.02203075	      0.00000000	      4.63704280	     -0.19784299	     -1.98590388	     -0.65005012	     -9.53848831	     27.84020921	     28.19803158	     72.52804904	     -1.57434137	    -13.70981769	     39.75986311	     27.76512837	     64.48062106
      5.63333330	     -9.33071910	      1.82594273	      1.19368618	     -0.01906701	      1.20768861	     -0.05915796	      4.29006129	     -0.67712976	     -7.46911202	      1.59028528	     14.08784168	      6.10978143	      0.00000000	      6.51130397	      1.07733171	     -5.96907010	      4.81624467	     12.53358136	      3.02238620	      0.00000000	      4.66486147	     -0.20173482	     -1.96147625	     -0.87350951	     -9.62977729	     27.86095495	     28.23910814	     72.48420115	     -1.85201899	    -13.75000699	     39.79178372	     27.83652433	     64.51595731
      5.65000000	     -9.33341628	      1.84439066	      1.29903441	     -0.01798029	      1.20959628	     -0.05924911	      4.30246547	     -0.66961945	     -7.44929655	      1.60951792	     14.07529893	      6.12581653	      0.00000000	      6.52595937	      1.06927586	     -5.97963713	      4.81560276	     12.52914371	      3.02481196	      0.00000000	      4.67468768	     -0.20491532	     -1.94232145	     -0.88293002	     -9.63448408	     27.86310897	     28.25846809	     72.47689690	     -1.89806777	    -13.75581763	     39.79736923	     27.85233516	     64.52191428
      5.66666670	     -9.33735321	      1.85442409	      1.31355866	     -0.01922907	      1.20907854	     -0.05831358	      4.29042132	     -0.67042864	     -7.44946962	      1.62148562	     14.07115222	      6.12730587	      0.00000000	      6.53347752	      1.06395549	     -5.97972031	      4.81483900	     12.52748914	      3.02677065	      0.00000000	      4.67973421	     -0.20367482	     -1.94213235	     -0.89118359	     -9.63784768	     27.86376272	     28.26105002	     72.47542504	     -1.90825107	    -13.75740843	     39.79874663	     27.85596290	     64.52316208
      5.68333330	     -9.33536181	      1.86121263	      1.44842973	     -0.01968910	      1.20913705	     -0.05885747	      4.30639589	     -0.69652561	     -7.46641310	      1.74285204	     14.00904444	      6.13729562	      0.00000000	      6.58186781	      1.06659482	     -5.98690531	      4.87497250	     12.49589816	      3.04965037	      0.00000000	      4.70888878	     -0.21280572	     -1.93444869	     -0.97632455	     -9.65867424	     27.87303479	     28.30088226	     72.45825249	     -2.02494672	    -13.80776964	     39.81462961	     27.89828207	     64.53803224
